<?xml version="1.0" standalone="no"?>
<!DOCTYPE svg PUBLIC "-//W3C//DTD SVG 20010904//EN"
 "http://www.w3.org/TR/2001/REC-SVG-20010904/DTD/svg10.dtd">
<svg version="1.0" xmlns="http://www.w3.org/2000/svg"
 width="1466.000000pt" height="1466.000000pt" viewBox="0 0 1466.000000 1466.000000"
 preserveAspectRatio="xMidYMid meet">

<g transform="translate(0.000000,1466.000000) scale(0.100000,-0.100000)"
fill="#000000" stroke="none">
<path d="M7025 14654 c-799 -42 -1512 -183 -2205 -436 -774 -283 -1501 -698
-2134 -1217 -828 -679 -1512 -1548 -1968 -2500 -348 -723 -570 -1486 -667
-2281 -41 -336 -46 -436 -45 -865 1 -438 11 -626 55 -967 206 -1623 959 -3135
2135 -4289 363 -356 671 -604 1109 -894 536 -354 1053 -608 1660 -815 584
-199 1192 -321 1845 -372 212 -16 816 -16 1030 0 1393 106 2636 555 3765 1361
1000 712 1840 1725 2365 2849 380 813 597 1650 672 2582 25 317 13 893 -27
1280 -118 1134 -494 2215 -1108 3180 -465 731 -1082 1398 -1782 1924 -171 129
-556 384 -725 481 -981 562 -2010 879 -3140 965 -140 11 -713 20 -835 14z
m-2118 -2800 c15 -11 38 -40 51 -65 l23 -44 -3 -1985 -3 -1985 -51 -105 c-99
-202 -143 -378 -164 -652 -23 -303 21 -566 144 -868 18 -47 31 -88 27 -93 -4
-4 -341 -6 -748 -5 l-741 3 -38 31 c-21 17 -50 53 -64 80 l-25 49 0 2730 c0
2216 2 2738 13 2773 13 44 69 114 106 134 12 6 35 15 51 19 17 4 337 6 712 6
671 -2 682 -2 710 -23z m3138 3 c666 -82 1245 -325 1725 -725 178 -149 444
-433 577 -617 257 -355 455 -840 540 -1320 26 -147 26 -719 0 -885 -72 -458
-252 -898 -481 -1174 -82 -99 -228 -246 -244 -246 -8 0 -51 23 -96 52 -275
177 -398 255 -536 338 -85 51 -229 141 -320 200 -91 58 -252 162 -357 229
-106 68 -198 130 -205 139 -11 13 -7 19 22 41 127 96 262 257 334 396 99 191
147 515 112 755 -51 344 -258 678 -536 865 -135 90 -341 177 -500 210 -206 44
-232 45 -1431 45 -1145 0 -1146 0 -1173 21 -14 11 -31 30 -37 41 -18 34 -12
1528 6 1571 15 37 39 61 75 76 17 7 413 9 1210 7 1007 -3 1205 -6 1315 -19z
m-1131 -3746 c327 -60 614 -158 877 -302 158 -86 820 -490 1169 -714 563 -360
1056 -635 1340 -748 395 -157 931 -244 1350 -218 91 6 182 16 204 22 25 7 42
7 48 1 29 -29 -280 -193 -457 -242 -305 -85 -554 -110 -1110 -110 -306 0 -821
18 -985 35 -30 3 -161 14 -290 25 -909 78 -1614 189 -1950 305 -453 158 -774
366 -1054 685 -250 284 -512 635 -592 792 -47 92 -26 132 129 249 150 113 336
186 587 230 152 27 562 21 734 -10z m4396 -311 c5 0 36 -26 68 -58 70 -69 114
-92 259 -132 156 -44 225 -80 308 -164 129 -130 154 -215 162 -542 4 -169 3
-233 -6 -238 -18 -11 -168 32 -260 75 -299 140 -529 401 -618 700 -35 119 -40
277 -10 322 19 30 54 49 75 41 8 -2 18 -4 22 -4z m1985 -23 c23 -33 19 -147
-11 -262 -90 -357 -310 -628 -629 -776 -67 -31 -196 -69 -234 -69 -18 0 -14
473 4 543 32 124 102 222 209 296 58 40 118 64 212 86 118 26 194 67 286 153
67 63 131 74 163 29z m-8020 -688 c68 -102 261 -352 355 -462 282 -327 571
-553 935 -732 519 -256 1065 -372 2250 -480 654 -59 1114 -79 1629 -72 477 7
654 24 925 88 140 33 141 33 141 17 0 -30 -166 -336 -294 -541 -105 -168 -365
-507 -389 -507 -6 0 -45 18 -87 39 -174 90 -494 210 -725 271 -238 63 -799
167 -1135 209 -463 59 -1191 101 -1767 101 l-321 0 -154 54 c-327 114 -553
254 -807 501 -325 316 -501 631 -582 1040 -43 218 -53 534 -15 522 6 -2 24
-23 41 -48z m-54 -1525 c9 -5 56 -56 106 -114 111 -130 250 -263 368 -355 l89
-70 -1144 -3 c-1279 -3 -1196 -7 -1264 68 -47 53 -58 101 -54 241 3 114 4 118
34 156 39 48 81 72 141 83 67 11 1705 6 1724 -6z m2579 -1034 c761 -34 1463
-121 1930 -240 237 -60 657 -209 712 -252 l23 -18 -60 -58 c-124 -118 -489
-392 -522 -392 -8 0 -51 18 -96 39 -314 149 -714 261 -1147 320 -472 64 -437
64 -2911 70 l-2266 6 -49 30 c-79 49 -94 86 -94 230 0 96 4 128 19 160 22 48
68 93 107 105 41 12 4076 12 4354 0z m240 -1010 c494 -30 871 -95 1130 -196
64 -25 119 -59 110 -67 -3 -2 -48 -24 -100 -49 -193 -91 -422 -157 -725 -207
-350 -58 -269 -56 -2705 -56 -2491 0 -2273 -6 -2354 65 -65 57 -71 78 -71 236
0 139 0 141 30 189 20 32 45 56 74 72 l44 23 2201 0 c1351 0 2265 -4 2366 -10z"/>
<path d="M7075 6849 c-87 -46 -131 -118 -122 -199 19 -162 164 -243 307 -170
82 42 121 124 100 212 -33 137 -175 215 -285 157z"/>
</g>
</svg>
